# xmcd
#
# Track frame offsets:
#	150
#	22672
#	57272
#	94472
#	136359
#	155859
#	173259
#	197167
#	219959
#	243302
#	268760
#	273440
#	299835
#	329545
#
# Disc length: 4747 seconds
#
# Revision: 0
# Processed by: cddbd v1.5.2PL0 Copyright (c) Steve Scherf et al.
# Submitted via: EZCDAudioConverter 5.3.0.1
#
DISCID=d412890e
DTITLE=Pet Shop Boys - It´s A Sin
DYEAR=1900
DGENRE=
TTITLE0=It's A Sin
TTITLE1=It's A Sin (Disco Mix)
TTITLE2=It's A Sin (Remix)
TTITLE3=It´s A Sin (Miami Mix - Latin Vocal Mix)
TTITLE4=It's A Sin (Phil Harding Latin Dub Mix)
TTITLE5=It's A Sin (Barfly Version)
TTITLE6=It's A Sin (Live Concrete CD)
TTITLE7=It's A Sin (Live Pandemonium CD)
TTITLE8=It's A Sin (Rehearsal Demo 1999)
TTITLE9=It's A Sin (Bobby O Demo)
TTITLE10=It´s A Sin (1st Demo)
TTITLE11=You Know Where You Went Wrong
TTITLE12=You Know Where You Went Wrong (Rough Mix)
TTITLE13=You Know Where You Went Wrong (Demo)
EXTD=
EXTT0=
EXTT1=
EXTT2=
EXTT3=
EXTT4=
EXTT5=
EXTT6=
EXTT7=
EXTT8=
EXTT9=
EXTT10=
EXTT11=
EXTT12=
EXTT13=
PLAYORDER=
